<svg width="119" height="119" viewBox="0 0 119 119" fill="none" xmlns="http://www.w3.org/2000/svg">
<path d="M32.1202 43.7418L13.2476 59.5L32.1202 75.2582C32.4987 75.5643 32.8125 75.9427 33.0434 76.3712C33.2743 76.7997 33.4177 77.2699 33.4653 77.7543C33.5129 78.2388 33.4637 78.7278 33.3206 79.1931C33.1774 79.6584 32.9432 80.0905 32.6315 80.4645C32.2787 80.8859 31.8378 81.225 31.3399 81.4578C30.842 81.6907 30.2992 81.8118 29.7495 81.8125C28.8781 81.8165 28.0352 81.5025 27.3788 80.9293L5.06631 62.3355C4.64768 61.991 4.31053 61.5581 4.07906 61.0678C3.84758 60.5776 3.72754 60.0422 3.72754 59.5C3.72754 58.9578 3.84758 58.4224 4.07906 57.9321C4.31053 57.4419 4.64768 57.009 5.06631 56.6645L27.3788 38.0707C27.7406 37.693 28.1779 37.3958 28.6623 37.1987C29.1467 37.0015 29.6672 36.9086 30.1899 36.9263C30.7126 36.9439 31.2257 37.0716 31.6957 37.301C32.1657 37.5304 32.582 37.8564 32.9175 38.2576C33.2529 38.6589 33.5 39.1263 33.6425 39.6295C33.785 40.1327 33.8198 40.6603 33.7445 41.1779C33.6693 41.6954 33.4857 42.1913 33.2059 42.6331C32.926 43.0749 32.556 43.4527 32.1202 43.7418ZM113.933 56.6645L91.6202 38.0707C90.8576 37.5648 89.9352 37.3578 89.0295 37.4895C88.1238 37.6212 87.2985 38.0822 86.7115 38.7843C86.1245 39.4864 85.817 40.3803 85.8478 41.295C85.8787 42.2097 86.2458 43.0808 86.8788 43.7418L105.751 59.5L86.8788 75.2582C86.3005 75.7489 85.886 76.4046 85.6909 77.1376C85.4959 77.8705 85.5296 78.6456 85.7876 79.3588C86.0455 80.072 86.5154 80.6893 87.1342 81.1279C87.753 81.5665 88.4911 81.8053 89.2495 81.8125C90.1209 81.8165 90.9638 81.5025 91.6202 80.9293L113.933 62.3355C114.351 61.991 114.688 61.5581 114.92 61.0678C115.151 60.5776 115.271 60.0422 115.271 59.5C115.271 58.9578 115.151 58.4224 114.92 57.9321C114.688 57.4419 114.351 57.009 113.933 56.6645ZM75.6296 15.1074C75.1721 14.938 74.6854 14.8615 74.198 14.8823C73.7106 14.9031 73.2323 15.0207 72.7909 15.2285C72.3494 15.4362 71.9538 15.7298 71.6272 16.0921C71.3005 16.4544 71.0493 16.8782 70.8882 17.3387L41.1382 99.1512C40.9688 99.6087 40.8923 100.095 40.913 100.583C40.9338 101.07 41.0515 101.548 41.2592 101.99C41.467 102.431 41.7605 102.827 42.1229 103.154C42.4852 103.48 42.909 103.731 43.3694 103.893C43.7726 104.037 44.1964 104.115 44.6245 104.125C45.3899 104.129 46.1374 103.894 46.7624 103.452C47.3875 103.01 47.8589 102.384 48.1108 101.661L77.8608 19.8488C78.0302 19.3913 78.1068 18.9047 78.086 18.4173C78.0652 17.9299 77.9475 17.4515 77.7398 17.0101C77.5321 16.5687 77.2385 16.1731 76.8762 15.8464C76.5138 15.5197 76.0901 15.2685 75.6296 15.1074Z" fill="white"/>
</svg>
