<svg width="120" height="120" viewBox="0 0 120 120" fill="none" xmlns="http://www.w3.org/2000/svg">
<path d="M16.4785 103.01L48.2985 71.1899M88.3685 57.0399L78.8435 85.6149C78.6915 86.073 78.4312 86.4876 78.0848 86.8236C77.7383 87.1596 77.316 87.407 76.8535 87.5449L18.4635 104.9C17.9374 105.056 17.3786 105.065 16.8478 104.926C16.3171 104.787 15.8346 104.504 15.4531 104.11C15.0716 103.715 14.8055 103.224 14.684 102.689C14.5624 102.154 14.5899 101.595 14.7635 101.075L33.7235 44.2049C33.8594 43.7966 34.0815 43.4223 34.3748 43.1074C34.6682 42.7925 35.0258 42.5444 35.4235 42.3799L62.3585 31.2899C62.9061 31.0638 63.5084 31.0048 64.0894 31.1205C64.6705 31.2362 65.2043 31.5213 65.6235 31.9399L87.6435 53.9649C88.0384 54.3593 88.3155 54.856 88.4436 55.3993C88.5716 55.9425 88.5456 56.5107 88.3685 57.0399V57.0399Z" stroke="white" stroke-width="3.525" stroke-linecap="round" stroke-linejoin="round"/>
<path d="M88.9597 55.2799L103.1 41.135C104.974 39.2597 106.028 36.7166 106.028 34.065C106.028 31.4133 104.974 28.8702 103.1 26.995L92.4997 16.385C91.5711 15.4559 90.4685 14.719 89.255 14.2162C88.0414 13.7134 86.7408 13.4546 85.4272 13.4546C84.1136 13.4546 82.8129 13.7134 81.5994 14.2162C80.3859 14.719 79.2833 15.4559 78.3547 16.385L64.2147 30.53M58.9047 60.58C58.208 59.8836 57.381 59.3313 56.4709 58.9546C55.5608 58.5779 54.5854 58.3841 53.6004 58.3843C52.6154 58.3846 51.6401 58.5788 50.7302 58.9559C49.8203 59.3331 48.9935 59.8858 48.2972 60.5825C47.6009 61.2791 47.0486 62.1061 46.6718 63.0162C46.2951 63.9263 46.1013 64.9017 46.1016 65.8867C46.1018 66.8717 46.296 67.847 46.6732 68.7569C47.0503 69.6669 47.603 70.4936 48.2997 71.19C49.7067 72.5963 51.6147 73.3861 53.604 73.3856C55.5933 73.3851 57.5009 72.5944 58.9072 71.1875C60.3135 69.7805 61.1033 67.8725 61.1028 65.8832C61.1024 63.8939 60.3117 61.9863 58.9047 60.58Z" stroke="white" stroke-width="3.525" stroke-linecap="round" stroke-linejoin="round"/>
</svg>
