<svg width="40" height="40" viewBox="0 0 40 40" fill="none" xmlns="http://www.w3.org/2000/svg">
<path d="M6.66634 33.3332C5.74967 33.3332 4.96523 33.0071 4.31301 32.3548C3.65967 31.7015 3.33301 30.9165 3.33301 29.9998V9.99984C3.33301 9.08317 3.65967 8.29873 4.31301 7.6465C4.96523 6.99317 5.74967 6.6665 6.66634 6.6665H16.6663L19.9997 9.99984H33.333C34.2497 9.99984 35.0347 10.3265 35.688 10.9798C36.3402 11.6321 36.6663 12.4165 36.6663 13.3332V29.9998C36.6663 30.9165 36.3402 31.7015 35.688 32.3548C35.0347 33.0071 34.2497 33.3332 33.333 33.3332H6.66634ZM6.66634 9.99984V29.9998H33.333V13.3332H18.6247L15.2913 9.99984H6.66634ZM6.66634 9.99984V29.9998V9.99984Z" fill="black"/>
</svg>
