<svg width="51" height="50" viewBox="0 0 51 50" fill="none" xmlns="http://www.w3.org/2000/svg">
<path d="M25.5001 4.16675C22.7642 4.16675 20.0551 4.70562 17.5275 5.75259C14.9999 6.79956 12.7032 8.33414 10.7687 10.2687C6.86168 14.1757 4.66675 19.4747 4.66675 25.0001C4.66675 34.2084 10.6459 42.0209 18.9167 44.7917C19.9584 44.9584 20.2917 44.3126 20.2917 43.7501V40.2292C14.5209 41.4792 13.2917 37.4376 13.2917 37.4376C12.3334 35.0209 10.9792 34.3751 10.9792 34.3751C9.08342 33.0834 11.1251 33.1251 11.1251 33.1251C13.2084 33.2709 14.3126 35.2709 14.3126 35.2709C16.1251 38.4376 19.1876 37.5001 20.3751 37.0001C20.5626 35.6459 21.1042 34.7292 21.6876 34.2084C17.0626 33.6876 12.2084 31.8959 12.2084 23.9584C12.2084 21.6459 13.0001 19.7917 14.3542 18.3126C14.1459 17.7917 13.4167 15.6251 14.5626 12.8126C14.5626 12.8126 16.3126 12.2501 20.2917 14.9376C21.9376 14.4792 23.7292 14.2501 25.5001 14.2501C27.2709 14.2501 29.0626 14.4792 30.7084 14.9376C34.6876 12.2501 36.4376 12.8126 36.4376 12.8126C37.5834 15.6251 36.8543 17.7917 36.6459 18.3126C38.0001 19.7917 38.7917 21.6459 38.7917 23.9584C38.7917 31.9167 33.9168 33.6667 29.2709 34.1876C30.0209 34.8334 30.7084 36.1042 30.7084 38.0417V43.7501C30.7084 44.3126 31.0417 44.9792 32.1042 44.7917C40.3751 42.0001 46.3334 34.2084 46.3334 25.0001C46.3334 22.2642 45.7945 19.5551 44.7476 17.0275C43.7006 14.4999 42.166 12.2032 40.2315 10.2687C38.2969 8.33414 36.0003 6.79956 33.4727 5.75259C30.945 4.70562 28.236 4.16675 25.5001 4.16675Z" fill="#251f1f"/>
</svg>
