<svg width="142" height="123" viewBox="0 0 142 123" fill="none" xmlns="http://www.w3.org/2000/svg">
<path d="M141.4 61.7H71.2001L36.1001 1H106.3L141.4 61.7Z" stroke="#623a23" stroke-miterlimit="10" stroke-linejoin="round"/>
<path d="M141.4 61.7H71.2001L36.1001 122.5H106.3L141.4 61.7Z" stroke="#623a23" stroke-miterlimit="10" stroke-linejoin="round"/>
<path d="M50.4001 25.8H91.9001L112.7 61.7L91.9001 97.7H50.4001L29.6001 61.7L50.4001 25.8Z" fill="#000000"/>
<path d="M36.1 1H106.3L141.4 61.7L106.3 122.5H36.1L1 61.7L36.1 1Z" stroke="#623a23" stroke-miterlimit="10" stroke-linejoin="round"/>
<path d="M106.3 1L71.2 61.7L106.3 122.5L141.4 61.7L106.3 1Z" stroke="#623a23" stroke-miterlimit="10" stroke-linejoin="round"/>
<path d="M71.2 61.7H1L36.1 122.5H106.3L71.2 61.7Z" stroke="#623a23" stroke-miterlimit="10" stroke-linecap="round" stroke-linejoin="round"/>
</svg>
