<svg width="120" height="120" viewBox="0 0 120 120" fill="none" xmlns="http://www.w3.org/2000/svg">
<path d="M81.5624 108.75C81.5624 109.496 81.266 110.211 80.7386 110.739C80.2112 111.266 79.4958 111.562 78.7499 111.562H41.2499C40.5039 111.562 39.7886 111.266 39.2611 110.739C38.7337 110.211 38.4374 109.496 38.4374 108.75C38.4374 108.004 38.7337 107.289 39.2611 106.761C39.7886 106.234 40.5039 105.937 41.2499 105.937H78.7499C79.4958 105.937 80.2112 106.234 80.7386 106.761C81.266 107.289 81.5624 108.004 81.5624 108.75ZM100.312 48.75C100.33 54.8583 98.949 60.8897 96.2759 66.3821C93.6029 71.8745 89.7083 76.6824 84.8905 80.4375C83.8617 81.238 83.0278 82.2612 82.4514 83.4304C81.8749 84.5995 81.571 85.884 81.5624 87.1875V90C81.5624 91.7405 80.871 93.4097 79.6402 94.6404C78.4095 95.8711 76.7403 96.5625 74.9999 96.5625H44.9999C43.2594 96.5625 41.5902 95.8711 40.3595 94.6404C39.1288 93.4097 38.4374 91.7405 38.4374 90V87.1875C38.4447 85.8928 38.1523 84.6139 37.583 83.451C37.0138 82.2881 36.1831 81.2728 35.1561 80.4844C30.3547 76.7535 26.4663 71.9778 23.786 66.5198C21.1057 61.0618 19.7041 55.0649 19.6874 48.9844C19.5467 27.1406 37.2186 8.95312 59.0155 8.4375C64.39 8.31262 69.7353 9.26273 74.7375 11.2321C79.7398 13.2014 84.2982 16.1502 88.1451 19.9055C91.992 23.6607 95.05 28.1467 97.1394 33.1C99.2288 38.0532 100.308 43.3741 100.312 48.75V48.75ZM94.6874 48.75C94.6823 44.1247 93.7536 39.547 91.9556 35.2855C90.1576 31.024 87.5267 27.1645 84.217 23.9335C80.9074 20.7025 76.9858 18.165 72.6823 16.4699C68.3788 14.7749 63.7802 13.9564 59.1561 14.0625C40.4061 14.5312 25.2186 30.1406 25.3124 48.9375C25.329 54.1746 26.5361 59.3393 28.8424 64.0412C31.1487 68.7431 34.4938 72.8592 38.6249 76.0781C40.3207 77.3905 41.6927 79.0745 42.6354 81.0006C43.5781 82.9266 44.0662 85.0432 44.0624 87.1875V90C44.0624 90.2486 44.1611 90.4871 44.3369 90.6629C44.5128 90.8387 44.7512 90.9375 44.9999 90.9375H74.9999C75.2485 90.9375 75.487 90.8387 75.6628 90.6629C75.8386 90.4871 75.9374 90.2486 75.9374 90V87.1875C75.9458 85.0338 76.444 82.9103 77.3942 80.9775C78.3443 79.0447 79.7216 77.3533 81.4217 76.0312C85.5655 72.7953 88.9148 68.6551 91.2139 63.9269C93.513 59.1987 94.7011 54.0075 94.6874 48.75V48.75ZM84.9374 44.4844C84.0569 39.3269 81.5942 34.5709 77.8903 30.8755C74.1865 27.1801 69.4249 24.7281 64.2655 23.8594C63.9017 23.7923 63.5282 23.7989 63.1671 23.8788C62.8059 23.9587 62.4645 24.1101 62.1629 24.3243C61.8613 24.5385 61.6058 24.8109 61.4114 25.1256C61.217 25.4403 61.0877 25.7907 61.0311 26.1562C60.9088 26.8895 61.0818 27.6413 61.5122 28.2474C61.9426 28.8534 62.5954 29.2645 63.328 29.3906C67.3379 30.0693 71.0383 31.976 73.9183 34.8476C76.7982 37.7192 78.7157 41.4139 79.4061 45.4219C79.5076 46.0801 79.8433 46.6795 80.3514 47.1101C80.8594 47.5406 81.5058 47.7734 82.1717 47.7656H82.6405C83.0079 47.7034 83.3593 47.5688 83.6743 47.3697C83.9893 47.1705 84.2615 46.9107 84.4752 46.6054C84.6889 46.3001 84.8399 45.9554 84.9192 45.5913C84.9985 45.2272 85.0047 44.8509 84.9374 44.4844Z" fill="white"/>
</svg>
