<svg width="51" height="50" viewBox="0 0 51 50" fill="none" xmlns="http://www.w3.org/2000/svg">
<path d="M14.9583 10.4166C14.9578 11.5216 14.5183 12.5812 13.7365 13.3622C12.9547 14.1432 11.8947 14.5817 10.7896 14.5811C9.68451 14.5806 8.62493 14.1411 7.84392 13.3593C7.0629 12.5775 6.62445 11.5175 6.625 10.4124C6.62555 9.30732 7.06507 8.24773 7.84686 7.46672C8.62865 6.68571 9.68868 6.24725 10.7938 6.2478C11.8988 6.24836 12.9584 6.68787 13.7394 7.46966C14.5204 8.25146 14.9589 9.31148 14.9583 10.4166ZM15.0833 17.6666H6.75V43.7499H15.0833V17.6666ZM28.25 17.6666H19.9583V43.7499H28.1667V30.0624C28.1667 22.4374 38.1042 21.7291 38.1042 30.0624V43.7499H46.3333V27.2291C46.3333 14.3749 31.625 14.8541 28.1667 21.1666L28.25 17.6666Z" fill="black"/>
</svg>
