<svg width="40" height="40" viewBox="0 0 40 40" fill="none" xmlns="http://www.w3.org/2000/svg">
<path d="M23.3333 5V8.33333H29.3167L12.9333 24.7167L15.2833 27.0667L31.6667 10.6833V16.6667H35V5M31.6667 31.6667H8.33333V8.33333H20V5H8.33333C7.44928 5 6.60143 5.35119 5.97631 5.97631C5.35119 6.60143 5 7.44928 5 8.33333V31.6667C5 32.5507 5.35119 33.3986 5.97631 34.0237C6.60143 34.6488 7.44928 35 8.33333 35H31.6667C32.5507 35 33.3986 34.6488 34.0237 34.0237C34.6488 33.3986 35 32.5507 35 31.6667V20H31.6667V31.6667Z" fill="black"/>
</svg>
