<svg width="51" height="50" viewBox="0 0 51 50" fill="none" xmlns="http://www.w3.org/2000/svg">
<path d="M47.2916 12.4999C45.6874 13.2291 43.9582 13.7083 42.1666 13.9374C43.9999 12.8333 45.4166 11.0833 46.0833 8.97909C44.3541 10.0208 42.4374 10.7499 40.4166 11.1666C38.7707 9.37492 36.4583 8.33325 33.8333 8.33325C28.9374 8.33325 24.9374 12.3333 24.9374 17.2708C24.9374 17.9791 25.0208 18.6666 25.1666 19.3124C17.7499 18.9374 11.1458 15.3749 6.74992 9.97909C5.97909 11.2916 5.54159 12.8333 5.54159 14.4583C5.54159 17.5624 7.10409 20.3124 9.52075 21.8749C8.04158 21.8749 6.66659 21.4583 5.45825 20.8333V20.8958C5.45825 25.2291 8.54159 28.8541 12.6249 29.6666C11.3139 30.0254 9.93762 30.0753 8.60409 29.8124C9.16993 31.5884 10.2781 33.1424 11.7729 34.256C13.2676 35.3696 15.0738 35.9868 16.9374 36.0208C13.7783 38.5217 9.86241 39.8735 5.83325 39.8541C5.12492 39.8541 4.41659 39.8124 3.70825 39.7291C7.66658 42.2708 12.3749 43.7499 17.4166 43.7499C33.8333 43.7499 42.8541 30.1249 42.8541 18.3124C42.8541 17.9166 42.8541 17.5416 42.8332 17.1458C44.5832 15.8958 46.0832 14.3124 47.2916 12.4999Z" fill="black"/>
</svg>
